<svg xmlns="http://www.w3.org/2000/svg" width="1280" height="720" viewBox="0 0 1280 720" role="img" aria-labelledby="title desc">
  <title id="title">NusaTales thumbnail fallback</title>
  <desc id="desc">Warm cream and brown NusaTales fallback image.</desc>
  <rect width="1280" height="720" fill="#f5efe0"/>
  <rect x="80" y="72" width="1120" height="576" rx="44" fill="#7a4b2a"/>
  <circle cx="240" cy="220" r="92" fill="#d7a33d"/>
  <path d="M156 552c126-152 240-226 342-222 94 4 153 72 238 76 86 4 154-54 250-42 70 9 128 48 176 116v72H156z" fill="#96b947"/>
  <path d="M336 480c72-94 144-140 216-138 64 2 109 43 166 46 62 4 116-32 179-23 50 7 91 32 124 75v40H336z" fill="#f2c94c" opacity=".9"/>
  <text x="640" y="338" text-anchor="middle" font-family="Arial, sans-serif" font-size="76" font-weight="800" fill="#fff4d6">NusaTales</text>
  <text x="640" y="408" text-anchor="middle" font-family="Arial, sans-serif" font-size="34" font-weight="700" fill="#fff4d6">Cerita Nusantara</text>
</svg>
